<svg width="17" height="16" viewBox="0 0 17 16" fill="none" xmlns="http://www.w3.org/2000/svg">
<g filter="url(#filter0_d_49_1825)">
<path d="M13.6134 3.05298C13.2789 2.71736 12.8815 2.45107 12.4439 2.26937C12.0064 2.08767 11.5372 1.99414 11.0634 1.99414C10.5896 1.99414 10.1204 2.08767 9.68284 2.26937C9.24526 2.45107 8.84784 2.71736 8.51339 3.05298L8.00006 3.57298L7.48672 3.05298C7.15227 2.71736 6.75486 2.45107 6.31727 2.26937C5.87968 2.08767 5.41053 1.99414 4.93672 1.99414C4.46291 1.99414 3.99376 2.08767 3.55618 2.26937C3.11859 2.45107 2.72118 2.71736 2.38672 3.05298C0.973391 4.46631 0.886724 6.85298 2.66672 8.66631L8.00006 13.9996L13.3334 8.66631C15.1134 6.85298 15.0267 4.46631 13.6134 3.05298Z" fill="#111111"/>
<path d="M13.6134 3.05298C13.2789 2.71736 12.8815 2.45107 12.4439 2.26937C12.0064 2.08767 11.5372 1.99414 11.0634 1.99414C10.5896 1.99414 10.1204 2.08767 9.68284 2.26937C9.24526 2.45107 8.84784 2.71736 8.51339 3.05298L8.00006 3.57298L7.48672 3.05298C7.15227 2.71736 6.75486 2.45107 6.31727 2.26937C5.87968 2.08767 5.41053 1.99414 4.93672 1.99414C4.46291 1.99414 3.99376 2.08767 3.55618 2.26937C3.11859 2.45107 2.72118 2.71736 2.38672 3.05298C0.973391 4.46631 0.886724 6.85298 2.66672 8.66631L8.00006 13.9996L13.3334 8.66631C15.1134 6.85298 15.0267 4.46631 13.6134 3.05298Z" stroke="#FFEE95" stroke-linecap="round" stroke-linejoin="round"/>
</g>
<path d="M7.99997 3.57324L5.9133 5.66658C5.64949 5.93254 5.50146 6.29197 5.50146 6.66658C5.50146 7.04118 5.64949 7.40061 5.9133 7.66658V7.66658C6.17926 7.93038 6.53869 8.07841 6.9133 8.07841C7.28791 8.07841 7.64734 7.93038 7.9133 7.66658L9.41997 6.19324C9.79441 5.82276 10.2999 5.61496 10.8266 5.61496C11.3534 5.61496 11.8589 5.82276 12.2333 6.19324L13.8333 7.79324" stroke="#FFEE95" stroke-linecap="round" stroke-linejoin="round"/>
<path d="M12.0001 10.0003L10.6667 8.66699" stroke="#FFEE95" stroke-linecap="round" stroke-linejoin="round"/>
<path d="M10.0001 12.0003L8.66675 10.667" stroke="#FFEE95" stroke-linecap="round" stroke-linejoin="round"/>
<defs>
<filter id="filter0_d_49_1825" x="0.828125" y="1.49414" width="15.344" height="14.0059" filterUnits="userSpaceOnUse" color-interpolation-filters="sRGB">
<feFlood flood-opacity="0" result="BackgroundImageFix"/>
<feColorMatrix in="SourceAlpha" type="matrix" values="0 0 0 0 0 0 0 0 0 0 0 0 0 0 0 0 0 0 127 0" result="hardAlpha"/>
<feOffset dx="1" dy="1"/>
<feComposite in2="hardAlpha" operator="out"/>
<feColorMatrix type="matrix" values="0 0 0 0 1 0 0 0 0 0.933333 0 0 0 0 0.583333 0 0 0 1 0"/>
<feBlend mode="normal" in2="BackgroundImageFix" result="effect1_dropShadow_49_1825"/>
<feBlend mode="normal" in="SourceGraphic" in2="effect1_dropShadow_49_1825" result="shape"/>
</filter>
</defs>
</svg>
